<svg width="248" height="36" viewBox="0 0 248 36" fill="none" xmlns="http://www.w3.org/2000/svg">
<path d="M2.68971 27.5V7.62H7.28171V23.468H16.9137V27.5H2.68971ZM26.5188 27.668C25.0441 27.668 23.7001 27.3787 22.4868 26.8C21.2735 26.2213 20.2375 25.4653 19.3788 24.532C18.5201 23.58 17.8481 22.4973 17.3628 21.284C16.8961 20.0707 16.6628 18.82 16.6628 17.532C16.6628 16.2253 16.9055 14.9653 17.3908 13.752C17.8948 12.5387 18.5855 11.4747 19.4628 10.56C20.3588 9.62667 21.4135 8.88933 22.6268 8.348C23.8401 7.788 25.1655 7.508 26.6028 7.508C28.0775 7.508 29.4215 7.79733 30.6348 8.376C31.8481 8.95467 32.8841 9.72 33.7428 10.672C34.6015 11.624 35.2641 12.7067 35.7308 13.92C36.1975 15.1333 36.4308 16.3653 36.4308 17.616C36.4308 18.9227 36.1788 20.1827 35.6748 21.396C35.1895 22.6093 34.5081 23.6827 33.6308 24.616C32.7535 25.5307 31.7081 26.268 30.4948 26.828C29.2815 27.388 27.9561 27.668 26.5188 27.668ZM21.3388 17.588C21.3388 18.3533 21.4508 19.1 21.6748 19.828C21.8988 20.5373 22.2255 21.172 22.6548 21.732C23.1028 22.292 23.6535 22.74 24.3068 23.076C24.9601 23.412 25.7068 23.58 26.5468 23.58C27.4241 23.58 28.1895 23.4027 28.8428 23.048C29.4961 22.6933 30.0375 22.236 30.4668 21.676C30.8961 21.0973 31.2135 20.4533 31.4188 19.744C31.6428 19.016 31.7548 18.2787 31.7548 17.532C31.7548 16.7667 31.6428 16.0293 31.4188 15.32C31.1948 14.592 30.8588 13.9573 30.4108 13.416C29.9628 12.856 29.4121 12.4173 28.7588 12.1C28.1241 11.764 27.3868 11.596 26.5468 11.596C25.6695 11.596 24.9041 11.7733 24.2508 12.128C23.6161 12.464 23.0748 12.912 22.6268 13.472C22.1975 14.032 21.8708 14.676 21.6468 15.404C21.4415 16.1133 21.3388 16.8413 21.3388 17.588ZM39.0842 27.5V7.62H48.0442C48.9776 7.62 49.8362 7.816 50.6202 8.208C51.4229 8.6 52.1136 9.11333 52.6922 9.748C53.2709 10.3827 53.7189 11.1013 54.0362 11.904C54.3722 12.7067 54.5402 13.5187 54.5402 14.34C54.5402 14.956 54.4656 15.5533 54.3162 16.132C54.1669 16.692 53.9522 17.224 53.6722 17.728C53.3922 18.232 53.0469 18.6893 52.6362 19.1C52.2442 19.492 51.7962 19.828 51.2922 20.108L55.6602 27.5H50.4802L46.6722 21.088H43.6762V27.5H39.0842ZM43.6762 17.084H47.8762C48.4176 17.084 48.8842 16.832 49.2762 16.328C49.6682 15.8053 49.8642 15.1427 49.8642 14.34C49.8642 13.5187 49.6402 12.8653 49.1922 12.38C48.7442 11.8947 48.2589 11.652 47.7362 11.652H43.6762V17.084ZM71.8141 23.468V27.5H57.842V7.62H71.5621V11.652H62.434V15.516H70.274V19.24H62.434V23.468H71.8141ZM90.2838 27.5V15.6L85.9718 24.252H83.5078L79.1958 15.6V27.5H74.6038V7.62H79.5878L84.7398 18.008L89.9198 7.62H94.8758V27.5H90.2838ZM98.6936 27.5V7.62H103.286V27.5H98.6936ZM107.088 27.5V7.62H115.572C116.524 7.62 117.392 7.816 118.176 8.208C118.979 8.6 119.66 9.11333 120.22 9.748C120.799 10.3827 121.247 11.1013 121.564 11.904C121.9 12.7067 122.068 13.5187 122.068 14.34C122.068 15.2173 121.909 16.0573 121.592 16.86C121.293 17.6627 120.864 18.3813 120.304 19.016C119.763 19.6507 119.1 20.1547 118.316 20.528C117.532 20.9013 116.664 21.088 115.712 21.088H111.68V27.5H107.088ZM111.68 17.084H115.432C115.973 17.084 116.44 16.8507 116.832 16.384C117.224 15.9173 117.42 15.236 117.42 14.34C117.42 13.8733 117.355 13.472 117.224 13.136C117.112 12.8 116.953 12.52 116.748 12.296C116.543 12.072 116.309 11.9133 116.048 11.82C115.787 11.708 115.525 11.652 115.264 11.652H111.68V17.084ZM136.461 13.444C136.405 13.3693 136.209 13.2293 135.873 13.024C135.537 12.8187 135.117 12.604 134.613 12.38C134.109 12.156 133.559 11.96 132.961 11.792C132.364 11.624 131.767 11.54 131.169 11.54C129.527 11.54 128.705 12.0907 128.705 13.192C128.705 13.528 128.789 13.808 128.957 14.032C129.144 14.256 129.405 14.4613 129.741 14.648C130.096 14.816 130.535 14.9747 131.057 15.124C131.58 15.2733 132.187 15.4413 132.877 15.628C133.829 15.8893 134.688 16.1787 135.453 16.496C136.219 16.7947 136.863 17.1773 137.385 17.644C137.927 18.092 138.337 18.6427 138.617 19.296C138.916 19.9493 139.065 20.7333 139.065 21.648C139.065 22.768 138.851 23.72 138.421 24.504C138.011 25.2693 137.46 25.8947 136.769 26.38C136.079 26.8467 135.285 27.192 134.389 27.416C133.493 27.6213 132.569 27.724 131.617 27.724C130.889 27.724 130.143 27.668 129.377 27.556C128.612 27.444 127.865 27.2853 127.137 27.08C126.409 26.856 125.7 26.5947 125.009 26.296C124.337 25.9973 123.712 25.652 123.133 25.26L125.149 21.256C125.224 21.3493 125.467 21.5267 125.877 21.788C126.288 22.0493 126.792 22.3107 127.389 22.572C128.005 22.8333 128.687 23.0667 129.433 23.272C130.18 23.4773 130.936 23.58 131.701 23.58C133.325 23.58 134.137 23.0853 134.137 22.096C134.137 21.7227 134.016 21.4147 133.773 21.172C133.531 20.9293 133.195 20.7147 132.765 20.528C132.336 20.3227 131.823 20.136 131.225 19.968C130.647 19.8 130.012 19.6133 129.321 19.408C128.407 19.128 127.613 18.8293 126.941 18.512C126.269 18.176 125.709 17.7933 125.261 17.364C124.832 16.9347 124.505 16.44 124.281 15.88C124.076 15.32 123.973 14.6667 123.973 13.92C123.973 12.8747 124.169 11.9507 124.561 11.148C124.953 10.3453 125.485 9.67333 126.157 9.132C126.829 8.572 127.604 8.152 128.481 7.872C129.377 7.592 130.32 7.452 131.309 7.452C132 7.452 132.681 7.51733 133.353 7.648C134.025 7.77867 134.669 7.94667 135.285 8.152C135.901 8.35733 136.471 8.59067 136.993 8.852C137.535 9.11333 138.029 9.37467 138.477 9.636L136.461 13.444ZM150.3 23.58C151.084 23.58 151.747 23.4213 152.288 23.104C152.829 22.768 153.268 22.3293 153.604 21.788C153.94 21.2467 154.173 20.6307 154.304 19.94C154.453 19.2307 154.528 18.512 154.528 17.784V7.62H159.12V17.784C159.12 19.1653 158.943 20.4533 158.588 21.648C158.252 22.8427 157.72 23.888 156.992 24.784C156.283 25.68 155.368 26.3893 154.248 26.912C153.147 27.416 151.831 27.668 150.3 27.668C148.713 27.668 147.36 27.3973 146.24 26.856C145.12 26.3147 144.205 25.596 143.496 24.7C142.805 23.7853 142.292 22.7307 141.956 21.536C141.639 20.3413 141.48 19.0907 141.48 17.784V7.62H146.072V17.784C146.072 18.5493 146.147 19.2773 146.296 19.968C146.445 20.6587 146.688 21.2747 147.024 21.816C147.36 22.3573 147.789 22.7867 148.312 23.104C148.853 23.4213 149.516 23.58 150.3 23.58ZM178.358 27.5V15.6L174.046 24.252H171.582L167.27 15.6V27.5H162.678V7.62H167.662L172.814 18.008L177.994 7.62H182.95V27.5H178.358ZM186.376 27.5V22.936H190.044V27.5H186.376Z" fill="white"/>
<path d="M198.059 16.132V27.5H193.467V7.62H197.051L206.319 19.296V7.62H210.911V27.5H207.215L198.059 16.132ZM228.685 23.468V27.5H214.713V7.62H228.433V11.652H219.305V15.516H227.145V19.24H219.305V23.468H228.685ZM246.623 11.652H240.575V27.5H235.983V11.652H229.907V7.62H246.623V11.652Z" fill="#42A9ED"/>
</svg>
